<svg xmlns="http://www.w3.org/2000/svg" width="211" height="118" viewBox="0 0 211 118" fill="none">
  <path d="M209.212 21.4714L202.945 83.9629L177.388 81.4002L180.521 50.1544L162.092 48.3065L117.678 109.271L39.336 101.415L7.0764 32.7628L10.2095 1.51709L183.654 18.9087L209.212 21.4714Z" fill="#fff"/>
  <path d="M183.654 18.9087L10.2095 1.51709L7.0764 32.7628L39.336 101.415L117.678 109.271L162.092 48.3065L180.521 50.1544M183.654 18.9087L209.212 21.4714L202.945 83.9629L177.388 81.4002L180.521 50.1544M183.654 18.9087L180.521 50.1544" stroke="#fff" stroke-width="2"/>
  <path d="M128.313 43.6941L39.354 34.7739L57.8035 73.0863L103.534 77.6718L128.313 43.6941Z" fill="#000" stroke="#000" stroke-width="2"/>
</svg>