<svg width="415" height="28" viewBox="0 0 415 28" fill="none" xmlns="http://www.w3.org/2000/svg">
<path d="M0 0.363647H12.5982C15.933 0.363647 18.1562 1.09092 19.6384 2.9091C20.75 4.00001 21.4911 5.81819 21.4911 7.63637C21.4911 10.5455 20.0089 12.3636 17.7857 13.4546C21.4911 14.5455 23.3437 16.3636 23.3437 20C23.3437 25.0909 19.2679 27.2727 12.9687 27.2727H0V0.363647ZM11.4866 11.2727C14.0804 11.2727 15.933 10.5455 15.933 8.36365C15.933 6.54547 14.4509 5.45456 11.8571 5.45456H5.92857V11.2727H11.4866V11.2727ZM12.9687 22.1818C15.5625 22.1818 17.4152 21.0909 17.4152 19.2727C17.4152 17.4546 15.933 16.3636 12.9687 16.3636H5.92857V22.1818H12.9687Z" fill="#fff"/>
<path d="M40.0179 0.363647H45.9464V21.8182H59.6563V27.2727H40.0179V0.363647Z" fill="#fff"/>
<path d="M85.9643 0.363647H91.5223L103.379 27.6364H97.0803L94.4866 21.4546H83L80.4062 27.6364H74.1071L85.9643 0.363647ZM92.2634 16.3636L88.558 7.63637L84.8526 16.3636H92.2634Z" fill="#fff"/>
<path d="M158.219 0.363647H164.147V12L175.263 0.363647H182.674L171.558 12L183.415 27.6364H176.004L167.482 16L164.147 19.2727V27.6364H158.219V0.363647V0.363647Z" fill="#fff"/>
<path d="M222.321 0.363647H228.25V10.9091H239.366V0.363647H245.295V27.2727H239.366V16.3636H228.25V27.2727H222.321V0.363647Z" fill="#fff"/>
<path d="M309.397 0.363647H314.955L327.924 17.0909V0.363647H333.853V27.2727H328.665L315.326 10.1818V27.2727H309.397V0.363647Z" fill="#fff"/>
<path d="M352.379 0.363647H373.129V5.81819H358.308V11.2727H371.277V16.7273H358.308V22.5455H373.129V28H352.009V0.363647H352.379Z" fill="#fff"/>
<path d="M398.326 16.7273L387.58 0.363647H394.621L401.29 11.2727L407.96 0.363647H415L404.254 16.7273V27.6364H398.326V16.7273Z" fill="#fff"/>
<path d="M282.348 5.81818L287.165 13.8182L282.348 21.8182H272.714L267.897 13.8182L272.714 5.81818H282.348V5.81818ZM285.683 0H269.379L261.228 13.8182L269.379 27.6364H285.683L293.835 13.8182L285.683 0Z" fill="#fff"/>
<path d="M136.728 21.8182H127.464L123.018 13.8182L127.464 6.18183H136.728L140.433 0.363647H124.129L116.348 13.8182L124.129 27.6364H140.433L136.728 21.8182Z" fill="#fff"/>
</svg>
