<svg width="10" height="16" viewBox="0 0 10 16" fill="none" xmlns="http://www.w3.org/2000/svg">
<path d="M4.9999 0.313103C2.27076 0.313103 -0.00488281 2.38418 -0.00488281 5.31789C-0.00488281 6.43241 0.426141 7.74479 0.888829 8.6077L4.52528 15.3999C4.58625 15.5159 4.68749 15.6056 4.80992 15.652C4.93248 15.6985 5.06764 15.6985 5.1902 15.652C5.31263 15.6056 5.41388 15.5159 5.47485 15.3999L9.11129 8.6077C9.57398 7.74467 10.005 6.43228 10.005 5.31789C10.005 2.38415 7.72933 0.313103 5.00022 0.313103H4.9999ZM4.9999 1.38562C7.20663 1.38562 8.93223 2.92095 8.93223 5.31795C8.93223 6.12462 8.53239 7.41808 8.16693 8.09956L4.9999 14.0038L1.83275 8.09956C1.46744 7.41805 1.06757 6.12462 1.06757 5.31795C1.06757 2.92095 2.79314 1.38562 4.9999 1.38562ZM4.9999 2.81559C3.62416 2.81559 2.49757 3.94234 2.49757 5.31792C2.49757 6.69366 3.62432 7.82025 4.9999 7.82025C6.37564 7.82025 7.50223 6.6935 7.50223 5.31792C7.50223 3.94218 6.37548 2.81559 4.9999 2.81559ZM4.9999 3.88811C5.79598 3.88811 6.42987 4.52197 6.42987 5.31808C6.42987 6.11418 5.79601 6.74805 4.9999 6.74805C4.2038 6.74805 3.56993 6.11418 3.56993 5.31808C3.56993 4.52197 4.2038 3.88811 4.9999 3.88811Z" fill="#fff"/>
</svg>
